<?xml version="1.0" standalone="no"?><!DOCTYPE svg PUBLIC "-//W3C//DTD SVG 1.1//EN" "http://www.w3.org/Graphics/SVG/1.1/DTD/svg11.dtd"><svg t="1615427026865" class="icon" viewBox="0 0 1024 1024" version="1.1" xmlns="http://www.w3.org/2000/svg" p-id="2032" xmlns:xlink="http://www.w3.org/1999/xlink" width="200" height="200"><defs><style type="text/css">@font-face { font-family: "MICROSOFT YAHEI"; src: local("MICROSOFT YAHEI"); font-weight: 400; }
@font-face { font-family: "MICROSOFT YAHEI"; font-weight: 400; src: local("Microsoft YaHei UI"), local("Microsoft YaHei"), local("微软雅黑"), local("微軟雅黑"), local("WenQuanYi Micro Hei"), local("Droid Sans Fallback"); unicode-range: U+2E80-9FFF, U+F900-FAFF, U+FE30-FE6F, U+FF00-FFEF, U+1B000-1B0FF, U+20000-2FA1F; }
@font-face { font-family: "MICROSOFT YAHEI"; font-weight: bold; src: local("Microsoft YaHei UI"), local("Microsoft YaHei"), local("微软雅黑"), local("微軟雅黑"), local("WenQuanYi Micro Hei"), local("Droid Sans Fallback"); unicode-range: U+2E80-9FFF, U+F900-FAFF, U+FE30-FE6F, U+FF00-FFEF, U+1B000-1B0FF, U+20000-2FA1F; }
@font-face { font-family: TAHOMA; src: local("TAHOMA"); font-weight: 400; }
@font-face { font-family: TAHOMA; font-weight: 400; src: local("Microsoft YaHei UI"), local("Microsoft YaHei"), local("微软雅黑"), local("微軟雅黑"), local("WenQuanYi Micro Hei"), local("Droid Sans Fallback"); unicode-range: U+2E80-9FFF, U+F900-FAFF, U+FE30-FE6F, U+FF00-FFEF, U+1B000-1B0FF, U+20000-2FA1F; }
@font-face { font-family: TAHOMA; font-weight: bold; src: local("Microsoft YaHei UI"), local("Microsoft YaHei"), local("微软雅黑"), local("微軟雅黑"), local("WenQuanYi Micro Hei"), local("Droid Sans Fallback"); unicode-range: U+2E80-9FFF, U+F900-FAFF, U+FE30-FE6F, U+FF00-FFEF, U+1B000-1B0FF, U+20000-2FA1F; }
@font-face { font-family: 微软雅黑; src: local("微软雅黑"); font-weight: 400; }
@font-face { font-family: 微软雅黑; font-weight: 400; src: local("Microsoft YaHei UI"), local("Microsoft YaHei"), local("微软雅黑"), local("微軟雅黑"), local("WenQuanYi Micro Hei"), local("Droid Sans Fallback"); unicode-range: U+2E80-9FFF, U+F900-FAFF, U+FE30-FE6F, U+FF00-FFEF, U+1B000-1B0FF, U+20000-2FA1F; }
@font-face { font-family: 微软雅黑; font-weight: bold; src: local("Microsoft YaHei UI"), local("Microsoft YaHei"), local("微软雅黑"), local("微軟雅黑"), local("WenQuanYi Micro Hei"), local("Droid Sans Fallback"); unicode-range: U+2E80-9FFF, U+F900-FAFF, U+FE30-FE6F, U+FF00-FFEF, U+1B000-1B0FF, U+20000-2FA1F; }
</style></defs><path d="M960 876.8l-134.4-140.8c44.8-64 70.4-140.8 70.4-224 0-211.2-172.8-384-384-384S128 300.8 128 512s172.8 384 384 384c83.2 0 160-25.6 217.6-70.4l134.4 140.8c25.6 25.6 64 25.6 89.6 0C985.6 940.8 985.6 902.4 960 876.8zM512 768c-140.8 0-256-115.2-256-256 0-140.8 115.2-256 256-256s256 115.2 256 256C768 652.8 652.8 768 512 768z" p-id="2033"></path></svg>